<?xml version="1.0" standalone="no"?>
<!DOCTYPE svg PUBLIC "-//W3C//DTD SVG 20010904//EN"
 "http://www.w3.org/TR/2001/REC-SVG-20010904/DTD/svg10.dtd">
<svg version="1.0" xmlns="http://www.w3.org/2000/svg"
 width="256.000000pt" height="256.000000pt" viewBox="0 0 256.000000 256.000000"
 preserveAspectRatio="xMidYMid meet">
<metadata>
Created by potrace 1.14, written by Peter Selinger 2001-2017
</metadata>
<g transform="translate(0.000000,256.000000) scale(0.100000,-0.100000)"
fill="#000000" stroke="none">
<path d="M0 1280 l0 -1280 1280 0 1280 0 0 1280 0 1280 -1280 0 -1280 0 0
-1280z m1248 422 c-1 -4 -111 -155 -242 -335 l-239 -327 -74 0 c-57 0 -72 3
-67 13 4 6 92 128 196 269 l187 258 -257 2 -257 3 -3 49 c-2 27 -1 55 2 62 4
12 71 14 382 14 206 0 374 -4 372 -8z m812 -61 l0 -60 -227 -3 c-258 -3 -282
-9 -362 -89 -62 -63 -86 -120 -86 -209 1 -91 25 -149 91 -215 71 -70 124 -85
309 -85 l155 0 0 135 0 135 -120 0 -120 0 -25 50 c-14 27 -25 54 -25 60 0 6
71 10 205 10 l205 0 0 -255 0 -255 -219 0 c-184 0 -229 3 -278 18 -154 49
-264 174 -294 336 -23 123 17 250 109 349 111 119 169 136 460 136 l222 1 0
-59z m-810 -721 l0 -60 -381 0 c-301 0 -379 3 -373 13 4 6 23 33 41 60 l35 47
339 0 339 0 0 -60z"/>
</g>
</svg>
