<svg
   xmlns="http://www.w3.org/2000/svg"
   width="377.89584"
   height="43.956139">
  <path
     d="m 355.88249,0 c -12.13556,0 -22.01335,9.877784 -22.01335,22.013348 0,12.135559 9.87779,21.942789 22.01335,21.942789 12.13557,0 22.01335,-9.80723 22.01335,-21.942789 C 377.89584,9.877784 368.01806,0 355.88249,0 Z m 0,40.146137 c -10.01889,0 -18.20334,-8.11389 -18.20334,-18.132789 0,-10.018896 8.18445,-18.203346 18.20334,-18.203346 10.0189,0 18.13279,8.18445 18.13279,18.203346 0,10.018899 -8.11389,18.132789 -18.13279,18.132789 z m -28.71613,3.81 V 0.211666 h -3.59833 v 43.744471 z m -29.49224,-25.258903 1.69333,3.668892 h 13.89946 v 17.991681 h -17.56835 -0.0705 c -9.31334,-1.19945 -16.3689,-9.03112 -16.3689,-18.203348 0,-9.101673 7.05556,-16.933345 16.3689,-18.13279 l 0.0705,-0.07056 h 21.09613 V 0.352778 h -18.55612 c -5.99723,0 -11.57112,2.257779 -15.80446,6.350004 -4.23334,4.092225 -6.63223,9.595562 -6.63223,15.451677 0,5.926668 2.39889,11.430008 6.63223,15.522228 4.23334,4.09223 9.80723,6.27945 15.80446,6.27945 h 18.62667 V 18.697234 Z m -36.40678,3.457225 -0.84667,-1.270001 -0.77611,-1.340556 1.27,-0.846668 c 0,0 0.0705,0 0.0705,-0.07055 0,0 0,0 0.0706,0 v 0 0 l 0.0706,-0.07056 c 0.0705,-0.07055 0.21166,-0.141111 0.28222,-0.211667 h 0.0705 l 0.0706,-0.07055 c 0.0706,0 0.14111,-0.07056 0.28222,-0.141111 0.21167,-0.211667 0.49389,-0.423334 0.70556,-0.564445 l 0.0706,-0.07056 c 0.0706,0 0.0706,-0.07056 0.14111,-0.07056 0.0706,-0.07056 0.14112,-0.141112 0.28223,-0.211667 v 0 0 c 0.14111,-0.141111 0.21166,-0.211667 0.35278,-0.352778 0,0 0.0705,0 0.0705,0 0.0706,-0.141111 0.21167,-0.211667 0.28222,-0.282223 0.28223,-0.211666 0.56445,-0.493889 0.84667,-0.776111 3.03389,-2.963336 5.08,-6.702783 5.99723,-10.795008 0.35277,-1.552223 0.49389,-3.175002 0.49389,-4.797781 V 0.141113 H 235.3029 v 16.3689 l 1.97555,-0.987779 1.62278,-0.846667 V 3.739447 h 28.36335 l -0.635,2.046112 c -0.91722,2.822224 -2.46944,5.362226 -4.58611,7.478894 -1.62278,1.552223 -3.52778,2.822224 -5.57389,3.739447 -2.32834,0.987778 -4.72723,1.481668 -7.26723,1.481668 H 235.3029 v 25.470569 h 3.59833 V 22.083903 h 10.30112 c 0.14111,0 0.28222,0 0.42333,0 h 0.14111 0.14112 c 0.0705,0 0.21166,0 0.35277,0 v 0 h 0.0706 v 0 0 c 0.21167,0 0.35278,0 0.49389,-0.07055 0,0 0.0705,0 0.0705,0 0.14111,0 0.35278,0 0.49389,0 v 0 h 0.0706 c 0.14111,-0.07056 0.28222,-0.07056 0.42333,-0.07056 v 0 c 0.0706,0 0.14111,0 0.14111,0 v 0 h 0.0706 c 0.14111,-0.07056 0.28222,-0.07056 0.35278,-0.07056 h 0.0705 c 0,0 0.0706,0 0.0706,-0.07056 h 0.0706 v 0 c 0.14111,0 0.21167,0 0.28223,0 0.42333,-0.07056 0.77611,-0.141111 1.12889,-0.282222 0.21166,0 0.35277,-0.07056 0.49388,-0.07056 h 0.0706 v 0 0 l 0.0706,-0.07056 v 0 c 0.14111,0 0.21166,0 0.28222,-0.07055 h 0.0705 v 0 0 0 h 0.0706 l 1.12889,-0.352778 0.635,1.058334 0.35278,0.564445 13.05278,21.378345 h 4.23334 z M 207.85674,0 c -12.13557,0 -22.01335,9.877784 -22.01335,22.013348 0,12.135559 9.87778,21.942789 22.01335,21.942789 12.13556,0 22.01334,-9.80723 22.01334,-21.942789 C 229.87008,9.877784 219.9923,0 207.85674,0 Z m 0,40.146137 c -10.0189,0 -18.20335,-8.11389 -18.20335,-18.132789 0,-10.018896 8.18445,-18.203346 18.20335,-18.203346 10.01889,0 18.13279,8.18445 18.13279,18.203346 0,10.018899 -8.1139,18.132789 -18.13279,18.132789 z m -28.71613,3.81 V 0.211666 h -3.59834 v 43.744471 z m -29.49225,-25.258903 1.69334,3.668892 h 13.89945 v 17.991681 h -17.56834 -0.0706 c -9.31334,-1.19945 -16.3689,-9.03112 -16.3689,-18.203348 0,-9.101673 7.05556,-16.933345 16.3689,-18.13279 l 0.0706,-0.07056 h 21.09612 V 0.352774 h -18.55612 c -5.99723,0 -11.57113,2.257779 -15.80446,6.350004 -4.23334,4.092225 -6.63223,9.595562 -6.63223,15.451677 0,5.926672 2.39889,11.430012 6.63223,15.522232 4.23333,4.09223 9.80723,6.27945 15.80446,6.27945 h 18.62668 V 18.697234 Z M 90.734477,0.282222 v 24.271127 c 0,8.466668 -6.843894,15.592788 -15.169455,15.804458 -0.211667,0 -0.352778,0 -0.564445,0 -0.211666,0 -0.352778,0 -0.564444,0 -8.325562,-0.21167 -15.169455,-7.33779 -15.169455,-15.804458 V 0.282222 h -3.598336 v 28.222245 c 0,3.175 1.199445,6.20889 3.245558,8.46667 0.917223,0.91722 1.834446,1.83444 2.89278,2.61056 3.810002,2.89278 8.396116,4.37444 13.193897,4.37444 4.797781,0 9.383896,-1.48166 13.193898,-4.37444 0.987779,-0.77612 1.975557,-1.62278 2.822224,-2.61056 2.116668,-2.25778 3.316114,-5.29167 3.316114,-8.46667 V 0.282222 Z M 48.965565,43.956137 V 0.211666 H 45.367229 V 43.956137 Z M 3.386668,40.357807 0.776111,43.956137 H 38.66447 v -3.59833 z M 28.222241,6.42056 8.184449,33.866687 h 4.445003 L 34.0078,4.515558 37.112247,0.282222 H 0 v 3.598336 h 30.056686 z"
  />
</svg>
